<svg width="258" height="128" viewBox="0 0 258 128" fill="none" xmlns="http://www.w3.org/2000/svg">
<path d="M244.2 36.63C244.2 27.95 244.2 19.27 244.2 10.59C244.2 5.29 239.91 1 234.61 1C159.94 1 85.26 1 10.59 1C5.29 1 1 5.29 1 10.59C1 45.89 1 81.2 1 116.5C1 121.8 5.29 126.09 10.59 126.09C85.26 126.09 159.94 126.09 234.61 126.09C239.91 126.09 244.2 121.8 244.2 116.5C244.2 107.82 244.2 99.14 244.2 90.46C246.24 90.46 248.27 90.46 250.31 90.46C253.87 90.46 256.76 87.57 256.76 84.01C256.76 70.37 256.76 56.72 256.76 43.08C256.76 39.52 253.87 36.63 250.31 36.63C248.27 36.63 246.23 36.63 244.2 36.63Z" stroke="#5D637F" stroke-width="2" stroke-miterlimit="10"/>
<path d="M181.33 53.66C181.33 43.97 176.98 38.5 170.32 38.5C163.73 38.5 159.38 43.97 159.38 53.66C159.38 63.42 163.73 69.02 170.32 69.02C176.98 69.02 181.33 63.42 181.33 53.66ZM170.32 65.27C166.56 65.27 163.92 61.38 163.92 53.67C163.92 45.96 166.56 42.2 170.32 42.2C174.14 42.2 176.78 45.96 176.78 53.67C176.78 61.38 174.14 65.27 170.32 65.27Z" fill="#494F64"/>
<path d="M198.41 38.5L171.771 88.61H175.79L202.491 38.5H198.41Z" fill="#494F64"/>
<path d="M204.01 58.1504C197.42 58.1504 193 63.6204 193 73.3104C193 83.0704 197.42 88.6104 204.01 88.6104C210.6 88.6104 214.951 83.0704 214.951 73.3104C214.951 63.6204 210.6 58.1504 204.01 58.1504ZM204.01 84.9104C200.19 84.9104 197.621 81.0204 197.621 73.3104C197.621 65.6004 200.19 61.8404 204.01 61.8404C207.77 61.8404 210.41 65.6004 210.41 73.3104C210.4 81.0204 207.77 84.9104 204.01 84.9104Z" fill="#494F64"/>
</svg>
