<svg width="174" height="81" viewBox="0 0 174 81" fill="none" xmlns="http://www.w3.org/2000/svg">
<path d="M40.7399 19.47C29.4099 19.47 20.1899 28.69 20.1899 40.02C20.1899 51.35 29.4099 60.5699 40.7399 60.5699C52.0699 60.5699 61.2899 51.35 61.2899 40.02C61.2999 28.69 52.0799 19.47 40.7399 19.47ZM40.7399 52.77C33.7099 52.77 27.9899 47.05 27.9899 40.02C27.9899 32.99 33.7099 27.27 40.7399 27.27C47.7699 27.27 53.4899 32.99 53.4899 40.02C53.4899 47.05 47.7699 52.77 40.7399 52.77Z" fill="#676868"/>
<path d="M40.7401 15.79C42.8901 15.79 44.6401 14.04 44.6401 11.89C44.6401 9.23001 44.6401 6.56002 44.6401 3.90002C44.6401 1.75002 42.8901 0 40.7401 0C38.5901 0 36.8401 1.75002 36.8401 3.90002C36.8401 6.56002 36.8401 9.23001 36.8401 11.89C36.8401 14.04 38.5901 15.79 40.7401 15.79Z" fill="#676868"/>
<path d="M60.64 24.03C61.64 24.03 62.64 23.65 63.4 22.89C65.28 21.01 67.17 19.12 69.05 17.24C70.57 15.72 70.57 13.25 69.05 11.72C67.53 10.2 65.06 10.2 63.53 11.72C61.65 13.6 59.76 15.49 57.88 17.37C56.36 18.89 56.36 21.36 57.88 22.89C58.64 23.65 59.64 24.03 60.64 24.03Z" fill="#676868"/>
<path d="M76.87 36.12C74.21 36.12 71.54 36.12 68.88 36.12C66.73 36.12 64.98 37.87 64.98 40.02C64.98 42.17 66.73 43.92 68.88 43.92C71.54 43.92 74.21 43.92 76.87 43.92C79.02 43.92 80.77 42.17 80.77 40.02C80.77 37.87 79.03 36.12 76.87 36.12Z" fill="#676868"/>
<path d="M63.4 57.16C61.88 55.64 59.41 55.64 57.88 57.16C56.36 58.68 56.36 61.15 57.88 62.68C59.76 64.56 61.65 66.4499 63.53 68.3299C64.29 69.0899 65.29 69.47 66.29 69.47C67.29 69.47 68.29 69.0899 69.05 68.3299C70.57 66.8099 70.57 64.34 69.05 62.81C67.16 60.93 65.28 59.04 63.4 57.16Z" fill="#676868"/>
<path d="M40.7401 64.26C38.5901 64.26 36.8401 66.01 36.8401 68.16C36.8401 70.82 36.8401 73.49 36.8401 76.15C36.8401 78.3 38.5901 80.05 40.7401 80.05C42.8901 80.05 44.6401 78.3 44.6401 76.15C44.6401 73.49 44.6401 70.82 44.6401 68.16C44.6401 66 42.9001 64.26 40.7401 64.26Z" fill="#676868"/>
<path d="M18.0901 57.1601C16.2101 59.0401 14.32 60.9301 12.44 62.8101C10.92 64.3301 10.92 66.8 12.44 68.33C13.2 69.09 14.2001 69.47 15.2001 69.47C16.2001 69.47 17.2001 69.09 17.9601 68.33C19.8401 66.45 21.73 64.5601 23.61 62.6801C25.13 61.1601 25.13 58.6901 23.61 57.1601C22.08 55.6301 19.6101 55.6301 18.0901 57.1601Z" fill="#676868"/>
<path d="M16.51 40.02C16.51 37.87 14.76 36.12 12.61 36.12C9.94999 36.12 7.27999 36.12 4.62 36.12C2.47 36.12 0.719971 37.87 0.719971 40.02C0.719971 42.17 2.47 43.92 4.62 43.92C7.27999 43.92 9.94999 43.92 12.61 43.92C14.76 43.92 16.51 42.18 16.51 40.02Z" fill="#676868"/>
<path d="M18.0901 22.89C18.8501 23.65 19.85 24.03 20.85 24.03C21.85 24.03 22.85 23.65 23.61 22.89C25.13 21.37 25.13 18.9 23.61 17.37C21.73 15.49 19.8401 13.6 17.9601 11.72C16.4401 10.2 13.97 10.2 12.44 11.72C10.92 13.24 10.92 15.71 12.44 17.24C14.32 19.12 16.2101 21 18.0901 22.89Z" fill="#676868"/>
<path d="M135.07 56.9302C125.75 56.9302 118.16 49.3401 118.16 40.0201C118.16 30.7001 125.75 23.1101 135.07 23.1101C144.39 23.1101 151.98 30.7001 151.98 40.0201C151.98 49.3501 144.4 56.9302 135.07 56.9302Z" fill="#A8A7A7"/>
<path d="M135.07 14.23C133.78 14.23 132.73 13.1801 132.73 11.8901C132.73 9.23008 132.73 6.56009 132.73 3.90009C132.73 2.61009 133.78 1.56006 135.07 1.56006C136.36 1.56006 137.41 2.61009 137.41 3.90009C137.41 6.56009 137.41 9.23008 137.41 11.8901C137.41 13.1801 136.36 14.23 135.07 14.23Z" fill="#A8A7A7"/>
<path d="M154.97 22.47C154.37 22.47 153.77 22.2401 153.31 21.7801C152.4 20.8701 152.4 19.38 153.31 18.47C155.19 16.59 157.08 14.7001 158.96 12.8201C159.87 11.9101 161.36 11.9101 162.27 12.8201C163.18 13.7301 163.18 15.2201 162.27 16.1301C160.39 18.0101 158.5 19.9001 156.62 21.7801C156.16 22.2401 155.56 22.47 154.97 22.47Z" fill="#A8A7A7"/>
<path d="M171.2 42.3601C168.54 42.3601 165.87 42.3601 163.21 42.3601C161.92 42.3601 160.87 41.3101 160.87 40.0201C160.87 38.7301 161.92 37.6802 163.21 37.6802C165.87 37.6802 168.54 37.6802 171.2 37.6802C172.49 37.6802 173.54 38.7301 173.54 40.0201C173.54 41.3101 172.49 42.3601 171.2 42.3601Z" fill="#A8A7A7"/>
<path d="M160.62 67.9102C160.02 67.9102 159.42 67.6801 158.96 67.2201C157.08 65.3401 155.19 63.4501 153.31 61.5701C152.4 60.6601 152.4 59.1701 153.31 58.2601C154.22 57.3501 155.71 57.3501 156.62 58.2601C158.5 60.1401 160.39 62.0302 162.27 63.9102C163.18 64.8202 163.18 66.3101 162.27 67.2201C161.82 67.6801 161.22 67.9102 160.62 67.9102Z" fill="#A8A7A7"/>
<path d="M135.07 78.4901C133.78 78.4901 132.73 77.4401 132.73 76.1501C132.73 73.4901 132.73 70.8202 132.73 68.1602C132.73 66.8702 133.78 65.8201 135.07 65.8201C136.36 65.8201 137.41 66.8702 137.41 68.1602C137.41 70.8202 137.41 73.4901 137.41 76.1501C137.41 77.4401 136.36 78.4901 135.07 78.4901Z" fill="#A8A7A7"/>
<path d="M109.52 67.9102C108.92 67.9102 108.32 67.6801 107.86 67.2201C106.95 66.3101 106.95 64.8202 107.86 63.9102C109.74 62.0302 111.63 60.1401 113.51 58.2601C114.42 57.3501 115.91 57.3501 116.82 58.2601C117.73 59.1701 117.73 60.6601 116.82 61.5701C114.94 63.4501 113.05 65.3401 111.17 67.2201C110.72 67.6801 110.12 67.9102 109.52 67.9102Z" fill="#A8A7A7"/>
<path d="M106.94 42.3601C104.28 42.3601 101.61 42.3601 98.9499 42.3601C97.6599 42.3601 96.6099 41.3101 96.6099 40.0201C96.6099 38.7301 97.6599 37.6802 98.9499 37.6802C101.61 37.6802 104.28 37.6802 106.94 37.6802C108.23 37.6802 109.28 38.7301 109.28 40.0201C109.28 41.3101 108.23 42.3601 106.94 42.3601Z" fill="#A8A7A7"/>
<path d="M115.18 22.47C114.58 22.47 113.98 22.2401 113.52 21.7801C111.64 19.9001 109.75 18.0101 107.87 16.1301C106.96 15.2201 106.96 13.7301 107.87 12.8201C108.78 11.9101 110.27 11.9101 111.18 12.8201C113.06 14.7001 114.95 16.59 116.83 18.47C117.74 19.38 117.74 20.8701 116.83 21.7801C116.37 22.2401 115.78 22.47 115.18 22.47Z" fill="#A8A7A7"/>
</svg>
