<svg width="91" height="91" viewBox="0 0 91 91" fill="none" xmlns="http://www.w3.org/2000/svg">
<path d="M45.35 90.7C70.3961 90.7 90.7 70.3961 90.7 45.35C90.7 20.3039 70.3961 0 45.35 0C20.3039 0 0 20.3039 0 45.35C0 70.3961 20.3039 90.7 45.35 90.7Z" fill="white"/>
<path d="M64.1098 30.6004L46.3698 12.4004H43.0998V37.6004L30.2598 25.0004L26.5298 29.6704L41.6998 44.3704L26.5298 60.0104L30.4998 64.3904L43.0998 52.0704V77.7404H45.4398L64.0998 59.3004L50.5598 45.0704L64.1098 30.6004ZM49.1698 23.8304L55.9398 30.7104L49.1698 37.5904V23.8304ZM55.9398 59.3104L49.1698 66.3104V52.3104L55.9398 59.3104Z" fill="#8F9092"/>
</svg>
