<svg width="113" height="54" viewBox="0 0 113 54" fill="none" xmlns="http://www.w3.org/2000/svg">
<path d="M112.06 19.33C112.06 8.66002 103.41 0 92.73 0C68.26 0 43.8 0 19.33 0C8.66 0 0 8.65002 0 19.33C0 24.35 0 29.37 0 34.39C0 45.06 8.65 53.72 19.33 53.72C43.8 53.72 68.26 53.72 92.73 53.72C103.4 53.72 112.06 45.07 112.06 34.39C112.06 29.37 112.06 24.35 112.06 19.33Z" fill="#323853"/>
<path d="M65.18 11.0498C63.48 10.1598 62.14 10.1598 60.44 11.0498C59.19 11.6998 58.47 12.5398 58 13.8698C56.76 13.8698 55.52 13.8698 54.28 13.8698C50.14 17.5298 45.99 21.1998 41.85 24.8598C39.24 24.8598 36.64 24.8598 34.03 24.8598C31.82 19.7898 24.24 21.3698 24.24 26.8998C24.24 32.4398 31.81 34.0198 34.03 28.9398C39.06 28.9398 44.09 28.9398 49.12 28.9398C53.26 32.5998 57.41 36.2698 61.55 39.9298C62.99 39.9298 64.43 39.9298 65.87 39.9298C65.87 41.0598 65.87 42.1998 65.87 43.3398C69.28 43.3398 72.68 43.3398 76.09 43.3398C76.09 39.9298 76.09 36.5298 76.09 33.1198C72.69 33.1198 69.28 33.1198 65.87 33.1198C65.87 34.2498 65.87 35.3898 65.87 36.5198C64.86 36.5198 63.85 36.5198 62.84 36.5198C59.98 33.9898 57.12 31.4598 54.26 28.9398C64.04 28.9398 73.82 28.9398 83.6 28.9398C83.6 30.2198 83.6 31.5098 83.6 32.7898C87.01 30.8198 90.41 28.8598 93.82 26.8898C90.42 24.9198 87.01 22.9598 83.6 20.9898C83.6 22.2698 83.6 23.5598 83.6 24.8498C71.4 24.8498 59.2 24.8498 46.99 24.8498C49.85 22.3198 52.71 19.7898 55.57 17.2598C56.38 17.2598 57.19 17.2598 58 17.2598C59.2 20.6498 63.44 21.7698 66.16 19.4198C68.88 17.0798 68.37 12.7198 65.18 11.0498Z" fill="#1F212C"/>
</svg>
