<svg width="91" height="91" viewBox="0 0 91 91" fill="none" xmlns="http://www.w3.org/2000/svg">
<path d="M45.35 90.7C70.3961 90.7 90.7 70.3961 90.7 45.35C90.7 20.3039 70.3961 0 45.35 0C20.3039 0 0 20.3039 0 45.35C0 70.3961 20.3039 90.7 45.35 90.7Z" fill="white"/>
<path d="M64.1098 30.5999L46.3698 12.3999H43.0998V37.5999L30.2598 24.9999L26.5298 29.6699L41.6998 44.3699L26.5298 60.0099L30.4998 64.3899L43.0998 52.0699V77.7399H45.4398L64.0998 59.2999L50.5598 45.0699L64.1098 30.5999ZM49.1698 23.8299L55.9398 30.7099L49.1698 37.5899V23.8299ZM55.9398 59.3099L49.1698 66.3099V52.3099L55.9398 59.3099Z" fill="#4582BC"/>
</svg>
