<svg width="72" height="72" viewBox="0 0 72 72" fill="none" xmlns="http://www.w3.org/2000/svg">
<path d="M35.6097 18.3809C25.7597 18.3809 17.7397 26.4009 17.7397 36.2509C17.7397 46.1009 25.7597 54.1208 35.6097 54.1208C45.4597 54.1208 53.4797 46.1009 53.4797 36.2509C53.4797 26.4009 45.4597 18.3809 35.6097 18.3809ZM35.6097 51.1208C27.4097 51.1208 20.7397 44.4509 20.7397 36.2509C20.7397 28.0509 27.4097 21.3809 35.6097 21.3809C43.8097 21.3809 50.4797 28.0509 50.4797 36.2509C50.4797 44.4409 43.8097 51.1208 35.6097 51.1208Z" fill="#5D637F"/>
<path d="M37.1099 0.730469H34.1099V8.59045H37.1099V0.730469Z" fill="#5D637F"/>
<path d="M59.6496 10.0506L54.0918 15.6084L56.2131 17.7297L61.7709 12.1719L59.6496 10.0506Z" fill="#5D637F"/>
<path d="M71.13 34.75H63.27V37.75H71.13V34.75Z" fill="#5D637F"/>
<path d="M56.2925 54.7215L54.1709 56.8428L59.7287 62.4014L61.8503 60.2801L56.2925 54.7215Z" fill="#5D637F"/>
<path d="M37.1099 63.9102H34.1099V71.7701H37.1099V63.9102Z" fill="#5D637F"/>
<path d="M14.9772 54.7469L9.41943 60.3047L11.5407 62.426L17.0985 56.8682L14.9772 54.7469Z" fill="#5D637F"/>
<path d="M7.94983 34.75H0.0898438V37.75H7.94983V34.75Z" fill="#5D637F"/>
<path d="M11.5222 10.0262L9.40088 12.1475L14.9587 17.7053L17.08 15.584L11.5222 10.0262Z" fill="#5D637F"/>
</svg>
