<svg width="91" height="91" viewBox="0 0 91 91" fill="none" xmlns="http://www.w3.org/2000/svg">
<path d="M45.44 90.88C70.5358 90.88 90.88 70.5359 90.88 45.4401C90.88 20.3442 70.5358 0 45.44 0C20.3442 0 0 20.3442 0 45.4401C0 70.5359 20.3442 90.88 45.44 90.88Z" fill="#858585"/>
<path d="M24.66 65.2803C38.51 65.2803 52.36 65.2803 66.21 65.2803C70.18 65.2803 73.41 62.0504 73.41 58.0804C73.41 49.6604 73.41 41.2303 73.41 32.8103C73.41 28.8403 70.18 25.6104 66.21 25.6104C52.36 25.6104 38.51 25.6104 24.66 25.6104C20.69 25.6104 17.46 28.8403 17.46 32.8103C17.46 41.2303 17.46 49.6604 17.46 58.0804C17.47 62.0504 20.69 65.2803 24.66 65.2803ZM66.21 60.9304C52.36 60.9304 38.51 60.9304 24.66 60.9304C24.63 60.9304 24.59 60.9303 24.56 60.9203C28.94 56.6303 33.32 52.3303 37.71 48.0403C38.38 48.7203 39.05 49.4004 39.71 50.0804C40.09 50.5004 42.05 52.4604 45.44 52.4604C48.87 52.4604 50.84 50.3803 51.27 49.8803C51.89 49.2503 52.5 48.6203 53.12 47.9903C57.52 52.3003 61.92 56.6103 66.32 60.9203C66.28 60.9303 66.25 60.9304 66.21 60.9304ZM69.06 32.8103C69.06 41.2303 69.06 49.6604 69.06 58.0804C69.06 58.3804 69.01 58.6604 68.93 58.9304C64.42 54.5104 59.91 50.0903 55.4 45.6703C59.9 41.0803 64.41 36.4903 68.91 31.9003C69.01 32.1803 69.06 32.4903 69.06 32.8103ZM24.66 29.9603C38.51 29.9603 52.36 29.9603 66.21 29.9603C66.22 29.9603 66.23 29.9603 66.24 29.9603C60.46 35.8603 54.67 41.7503 48.89 47.6503C48.87 47.6703 48.84 47.7003 48.82 47.7203C48.8 47.7503 48.78 47.7704 48.76 47.8004C48.75 47.8104 47.62 49.2104 45.43 49.2104C43.37 49.2104 42.26 48.0604 42.14 47.9304C42.13 47.9204 42.12 47.9103 42.12 47.9003C36.25 41.9203 30.38 35.9503 24.51 29.9703C24.56 29.9603 24.61 29.9603 24.66 29.9603ZM21.81 32.8103C21.81 32.5303 21.85 32.2504 21.93 31.9904C26.43 36.5704 30.92 41.1403 35.42 45.7203C30.93 50.1203 26.43 54.5304 21.94 58.9304C21.86 58.6604 21.81 58.3804 21.81 58.0804C21.81 49.6604 21.81 41.2303 21.81 32.8103Z" fill="white"/>
</svg>
