<svg width="36" height="36" viewBox="0 0 36 36" fill="none" xmlns="http://www.w3.org/2000/svg">
<path d="M33.23 13.85C32.41 13.71 31.59 13.57 30.77 13.43C30.51 12.6 30.18 11.81 29.78 11.05C30.26 10.37 30.75 9.70002 31.23 9.02002C31.84 8.16002 31.75 6.98004 31 6.23004C30.27 5.50004 29.55 4.78005 28.82 4.05005C28.41 3.64005 27.87 3.41003 27.29 3.41003C26.84 3.41003 26.41 3.55 26.04 3.81C25.36 4.29 24.6799 4.78001 24.0099 5.26001C23.2199 4.84001 22.39 4.50005 21.54 4.24005C21.4 3.43005 21.27 2.62 21.13 1.81C20.95 0.759998 20.05 0 18.99 0C17.96 0 16.94 0 15.91 0C14.85 0 13.95 0.759998 13.77 1.81C13.63 2.64 13.49 3.47005 13.35 4.30005C12.53 4.56005 11.73 4.89005 10.97 5.30005C10.3 4.82005 9.62996 4.33004 8.95996 3.85004C8.58996 3.59004 8.15995 3.45001 7.69995 3.45001C7.11995 3.45001 6.56998 3.68003 6.16998 4.09003C5.43998 4.82003 4.70998 5.54002 3.97998 6.27002C3.22998 7.02002 3.13 8.19 3.75 9.06C4.24 9.75 4.72996 10.43 5.20996 11.12C4.80996 11.89 4.48999 12.69 4.23999 13.51C3.42999 13.65 2.62 13.78 1.81 13.92C0.759998 14.1 0 15 0 16.06C0 17.09 0 18.11 0 19.14C0 20.2 0.759998 21.1 1.81 21.28C2.64 21.42 3.46999 21.56 4.29999 21.7C4.55999 22.52 4.88999 23.32 5.29999 24.08C4.81999 24.75 4.33999 25.42 3.85999 26.08C3.24999 26.94 3.33997 28.12 4.08997 28.87C4.81997 29.6 5.53996 30.32 6.26996 31.05C6.67996 31.46 7.21999 31.69 7.79999 31.69C8.24999 31.69 8.68999 31.55 9.04999 31.29C9.73999 30.8 10.42 30.31 11.11 29.83C11.85 30.22 12.62 30.53 13.42 30.78C13.56 31.6 13.69 32.4201 13.83 33.2401C14.01 34.2901 14.91 35.05 15.97 35.05C17 35.05 18.03 35.05 19.06 35.05C20.12 35.05 21.02 34.2901 21.2 33.2401C21.34 32.4201 21.48 31.6 21.62 30.78C22.45 30.52 23.2399 30.2 24.0099 29.79C24.6899 30.27 25.36 30.7601 26.04 31.2401C26.41 31.5001 26.84 31.64 27.3 31.64C27.88 31.64 28.42 31.41 28.83 31C29.56 30.27 30.2799 29.55 31.0099 28.82C31.7599 28.07 31.86 26.9 31.24 26.03C30.76 25.35 30.27 24.67 29.79 24C30.19 23.23 30.53 22.43 30.78 21.61C31.6 21.47 32.42 21.34 33.24 21.2C34.29 21.03 35.05 20.12 35.05 19.06C35.05 18.03 35.05 17.01 35.05 15.98C35.04 14.93 34.28 14.03 33.23 13.85ZM33.07 19.07C33.06 19.16 33 19.24 32.9 19.26C31.88 19.43 30.85 19.6 29.83 19.77C29.44 19.84 29.14 20.1201 29.04 20.4901C28.76 21.5701 28.34 22.6 27.77 23.56C27.57 23.9 27.59 24.31 27.81 24.64C28.41 25.49 29.02 26.34 29.62 27.19C29.67 27.26 29.66 27.37 29.6 27.44C28.87 28.17 28.15 28.89 27.42 29.62C27.37 29.67 27.32 29.68 27.28 29.68C27.24 29.68 27.2 29.66 27.17 29.64C26.32 29.04 25.48 28.44 24.63 27.83C24.32 27.6 23.89 27.59 23.55 27.79C22.59 28.36 21.56 28.79 20.48 29.06C20.1 29.16 19.8099 29.47 19.7599 29.85C19.5899 30.87 19.41 31.9 19.24 32.92C19.23 33.02 19.15 33.08 19.05 33.08C18.02 33.08 17 33.08 15.97 33.08C15.88 33.08 15.79 33.01 15.78 32.92C15.61 31.9 15.44 30.87 15.27 29.85C15.2 29.46 14.92 29.15 14.55 29.06C13.5 28.79 12.49 28.37 11.55 27.83C11.4 27.74 11.22 27.7 11.05 27.7C10.85 27.7 10.65 27.76 10.48 27.88C9.62998 28.49 8.76998 29.09 7.91998 29.7C7.87998 29.72 7.85 29.7401 7.81 29.7401C7.78 29.7401 7.71998 29.73 7.66998 29.68C6.93998 28.95 6.21999 28.23 5.48999 27.5C5.41999 27.43 5.41997 27.33 5.46997 27.25C6.06997 26.41 6.66996 25.57 7.26996 24.73C7.49996 24.41 7.51 23.98 7.31 23.65C6.74 22.7 6.29996 21.67 6.01996 20.59C5.91996 20.22 5.60998 19.93 5.22998 19.87C4.19998 19.69 3.16995 19.52 2.13995 19.34C2.04995 19.33 1.97998 19.25 1.97998 19.15C1.97998 18.12 1.97998 17.1 1.97998 16.07C1.97998 15.97 2.04995 15.89 2.13995 15.88C3.15995 15.71 4.17 15.54 5.19 15.37C5.58 15.3 5.88999 15.02 5.98999 14.64C6.25999 13.56 6.67999 12.52 7.23999 11.57C7.43999 11.23 7.42 10.82 7.19 10.5C6.58 9.65 5.98 8.79 5.37 7.94C5.32 7.87 5.32995 7.76 5.38995 7.69C6.11995 6.96 6.84001 6.24001 7.57001 5.51001C7.62001 5.46001 7.66996 5.45001 7.70996 5.45001C7.74996 5.45001 7.79001 5.46005 7.82001 5.49005C8.66001 6.09005 9.49997 6.69004 10.34 7.29004C10.66 7.52004 11.09 7.53002 11.42 7.33002C12.37 6.76002 13.4 6.32004 14.48 6.04004C14.85 5.94004 15.14 5.63 15.2 5.25C15.38 4.22 15.55 3.19003 15.73 2.16003C15.74 2.06003 15.82 2 15.92 2C16.95 2 17.97 2 19 2C19.09 2 19.18 2.07003 19.19 2.16003C19.36 3.18003 19.53 4.19002 19.7 5.21002C19.77 5.60002 20.05 5.91001 20.43 6.01001C21.53 6.29001 22.59 6.72005 23.57 7.30005C23.91 7.50005 24.32 7.48001 24.65 7.26001C25.49 6.66001 26.33 6.05001 27.17 5.45001C27.21 5.43001 27.24 5.41003 27.28 5.41003C27.31 5.41003 27.37 5.42003 27.42 5.47003C28.15 6.20003 28.87 6.92002 29.6 7.65002C29.67 7.72002 29.67 7.82002 29.62 7.90002C29.02 8.75002 28.41 9.59 27.81 10.44C27.58 10.75 27.57 11.18 27.77 11.52C28.34 12.48 28.77 13.51 29.04 14.58C29.13 14.96 29.45 15.25 29.83 15.3C30.85 15.47 31.88 15.65 32.9 15.82C32.99 15.83 33.06 15.92 33.06 16.01C33.07 17.02 33.07 18.04 33.07 19.07Z" fill="#323333"/>
<path d="M17.5099 9.96973C13.3399 9.96973 9.94995 13.3597 9.94995 17.5297C9.94995 21.6997 13.3399 25.0897 17.5099 25.0897C21.6799 25.0897 25.07 21.6997 25.07 17.5297C25.07 13.3597 21.6899 9.96973 17.5099 9.96973ZM17.5099 23.1097C14.4299 23.1097 11.93 20.6097 11.93 17.5297C11.93 14.4497 14.4299 11.9497 17.5099 11.9497C20.5899 11.9497 23.09 14.4497 23.09 17.5297C23.09 20.6097 20.5899 23.1097 17.5099 23.1097Z" fill="#323333"/>
</svg>
