<svg width="92" height="92" viewBox="0 0 92 92" fill="none" xmlns="http://www.w3.org/2000/svg">
<path d="M91.7009 46.2616C91.7009 21.166 71.3569 0.822045 46.2613 0.822045C21.1657 0.822045 0.821777 21.166 0.821777 46.2616C0.821777 71.3572 21.1657 91.7012 46.2613 91.7012C71.3569 91.7012 91.7009 71.3572 91.7009 46.2616Z" fill="#858585"/>
<path d="M46.2742 17.8594C30.6042 17.8594 17.8542 30.6093 17.8542 46.2793C17.8542 61.9493 30.6042 74.6993 46.2742 74.6993C61.9442 74.6993 74.6942 61.9493 74.6942 46.2793C74.6942 30.6093 61.9442 17.8594 46.2742 17.8594ZM65.7242 32.1094C68.3242 35.6694 69.9742 39.9794 70.2842 44.6394C66.7242 44.6394 63.1642 44.6394 59.6042 44.6394C59.5142 41.0794 59.1042 37.6594 58.4242 34.4994C60.9942 33.9194 63.3842 33.1494 65.4942 32.2094C65.5742 32.1794 65.6442 32.1494 65.7242 32.1094ZM63.5342 29.5094C61.7542 30.2494 59.7643 30.8694 57.6243 31.3494C57.1743 29.8194 56.6542 28.3793 56.0542 27.0493C55.4642 25.7293 54.8143 24.5493 54.1243 23.5193C57.7243 24.7593 60.9342 26.8394 63.5342 29.5094ZM36.1942 44.6394C36.2842 41.2794 36.6742 38.0594 37.3142 35.1094C40.1642 35.5594 43.1742 35.7893 46.2742 35.7893C49.3642 35.7893 52.3843 35.5594 55.2343 35.1094C55.8743 38.0594 56.2642 41.2794 56.3542 44.6394C49.6342 44.6394 42.9142 44.6394 36.1942 44.6394ZM56.3542 47.8993C56.2642 51.2593 55.8743 54.4793 55.2343 57.4293C52.3843 56.9793 49.3742 56.7494 46.2742 56.7494C43.1842 56.7494 40.1642 56.9793 37.3142 57.4293C36.6742 54.4793 36.2842 51.2593 36.1942 47.8993C42.9142 47.8993 49.6342 47.8993 56.3542 47.8993ZM44.1042 22.2993C44.8142 22.2393 45.5442 22.1993 46.2742 22.1993C47.0042 22.1993 47.7242 22.2293 48.4442 22.2993C50.1242 23.2893 51.7442 25.3894 53.0842 28.3794C53.5742 29.4894 54.0242 30.6793 54.4142 31.9493C51.8342 32.3393 49.0942 32.5393 46.2842 32.5393C43.4742 32.5393 40.7342 32.3393 38.1542 31.9493C38.5442 30.6793 38.9842 29.4894 39.4842 28.3794C40.8042 25.3894 42.4242 23.2893 44.1042 22.2993ZM38.4142 23.5193C37.7242 24.5493 37.0742 25.7293 36.4842 27.0493C35.8942 28.3793 35.3642 29.8194 34.9142 31.3494C32.7742 30.8694 30.7942 30.2594 29.0042 29.5094C31.6142 26.8394 34.8242 24.7593 38.4142 23.5193ZM26.8242 32.1094C26.9042 32.1394 26.9742 32.1794 27.0542 32.2094C29.1642 33.1494 31.5442 33.9194 34.1242 34.4994C33.4442 37.6494 33.0342 41.0794 32.9442 44.6394C29.3842 44.6394 25.8242 44.6394 22.2642 44.6394C22.5642 39.9794 24.2142 35.6794 26.8242 32.1094ZM26.8242 60.4293C24.2242 56.8693 22.5742 52.5593 22.2642 47.8993C25.8242 47.8993 29.3842 47.8993 32.9442 47.8993C33.0342 51.4593 33.4442 54.8793 34.1242 58.0393C31.5542 58.6193 29.1642 59.3893 27.0542 60.3293C26.9742 60.3593 26.8942 60.3993 26.8242 60.4293ZM29.0142 63.0393C30.7942 62.2993 32.7842 61.6793 34.9242 61.1993C35.3742 62.7293 35.8942 64.1694 36.4942 65.4994C37.0842 66.8194 37.7342 67.9993 38.4242 69.0293C34.8242 67.7793 31.6142 65.7093 29.0142 63.0393ZM48.4442 70.2494C47.7342 70.3094 47.0042 70.3494 46.2742 70.3494C45.5442 70.3494 44.8242 70.3194 44.1042 70.2494C42.4242 69.2594 40.8042 67.1593 39.4642 64.1693C38.9742 63.0593 38.5242 61.8694 38.1342 60.5994C40.7142 60.2094 43.4543 60.0094 46.2643 60.0094C49.0743 60.0094 51.8142 60.2094 54.3942 60.5994C54.0042 61.8694 53.5642 63.0593 53.0642 64.1693C51.7442 67.1593 50.1242 69.2594 48.4442 70.2494ZM54.1243 69.0293C54.8143 67.9993 55.4642 66.8194 56.0542 65.4994C56.6442 64.1694 57.1743 62.7293 57.6243 61.1993C59.7643 61.6793 61.7442 62.2893 63.5342 63.0393C60.9342 65.7093 57.7243 67.7793 54.1243 69.0293ZM65.7242 60.4393C65.6442 60.3993 65.5742 60.3693 65.4942 60.3293C63.3842 59.3893 61.0042 58.6193 58.4242 58.0393C59.1042 54.8893 59.5142 51.4593 59.6042 47.8993C63.1642 47.8993 66.7242 47.8993 70.2842 47.8993C69.9742 52.5693 68.3242 56.8693 65.7242 60.4393Z" fill="white"/>
</svg>
