<svg width="92" height="92" viewBox="0 0 92 92" fill="none" xmlns="http://www.w3.org/2000/svg">
<path d="M91.7009 46.2616C91.7009 21.166 71.3569 0.822045 46.2613 0.822045C21.1658 0.822045 0.821777 21.166 0.821777 46.2616C0.821777 71.3572 21.1658 91.7012 46.2613 91.7012C71.3569 91.7012 91.7009 71.3572 91.7009 46.2616Z" fill="#858585"/>
<path d="M23.8252 46.5693C30.7152 39.6793 37.6052 32.7893 44.5052 25.8893C44.5352 25.8493 44.5652 25.8093 44.5952 25.7593C44.5952 25.7493 45.1752 25.0792 45.8352 25.0292C46.4652 24.9792 47.1552 25.5292 47.6252 25.9992C54.6452 33.0292 61.6752 40.0493 68.7052 47.0793C69.1252 47.4993 69.6852 47.7192 70.2452 47.7192C70.8052 47.7192 71.3552 47.5093 71.7852 47.0793C72.6352 46.2293 72.6352 44.8593 71.7852 44.0093C64.7552 36.9793 57.7352 29.9592 50.7052 22.9292C48.6952 20.9192 46.7752 20.6093 45.5252 20.6993C43.1952 20.8693 41.6852 22.4693 41.2352 23.0193C34.4052 29.8493 27.5852 36.6692 20.7552 43.4992C19.9052 44.3492 19.9052 45.7193 20.7552 46.5693C21.5952 47.4193 22.9752 47.4193 23.8252 46.5693Z" fill="white"/>
<path d="M27.2352 47.9297C26.0352 47.9297 25.0652 48.8997 25.0652 50.0997C25.0652 55.0097 25.0652 59.9097 25.0652 64.8197C25.0652 64.8397 25.0652 64.8497 25.0652 64.8697C25.1252 67.6797 27.0552 71.8497 32.0952 71.8497C41.4752 71.8497 50.8552 71.8497 60.2352 71.8497C63.1452 71.8497 67.4752 69.9197 67.4752 64.6197C67.4752 59.7797 67.4752 54.9497 67.4752 50.1097C67.4752 48.9097 66.5052 47.9397 65.3052 47.9397C64.1052 47.9397 63.1352 48.9097 63.1352 50.1097C63.1352 54.9497 63.1352 59.7797 63.1352 64.6197C63.1352 67.1697 61.0952 67.4897 60.2452 67.5097C50.8652 67.5097 41.4852 67.5097 32.1052 67.5097C30.6952 67.5097 30.1752 66.8897 29.8752 66.3497C29.4852 65.6497 29.4252 64.8697 29.4152 64.7797C29.4152 59.8897 29.4152 54.9997 29.4152 50.0997C29.4052 48.8997 28.4352 47.9297 27.2352 47.9297Z" fill="white"/>
</svg>
