<svg width="92" height="92" viewBox="0 0 92 92" fill="none" xmlns="http://www.w3.org/2000/svg">
<path d="M91.1027 45.6642C91.1027 20.5693 70.7593 0.225882 45.6644 0.225882C20.5695 0.225882 0.226074 20.5693 0.226074 45.6642C0.226074 70.7591 20.5695 91.1025 45.6644 91.1025C70.7593 91.1025 91.1027 70.7591 91.1027 45.6642Z" fill="#858585"/>
<path d="M47.0845 62.4069C47.0845 54.8569 47.0845 47.3169 47.0845 39.7669C47.0845 38.6969 46.2145 37.8369 45.1545 37.8369C43.4645 37.8369 41.7745 37.8369 40.0845 37.8369C39.0145 37.8369 38.1545 38.7069 38.1545 39.7669C38.1545 47.9769 38.1545 56.1869 38.1545 64.3969C38.1545 65.7269 38.3445 66.9169 38.7245 67.9869C39.1045 69.0469 39.6345 69.9569 40.3345 70.7069C41.0245 71.4569 41.8645 72.0269 42.8345 72.4269C43.8145 72.8269 44.8945 73.0269 46.0945 73.0269C47.4045 73.0269 48.8045 72.8169 49.9045 72.2869C51.3045 71.6169 53.0445 70.1969 53.9945 68.8369C54.9345 67.4769 55.6545 65.1569 55.6545 65.1569C55.7745 64.4369 54.9645 63.9269 54.3645 64.3569C54.0445 64.5869 52.4745 65.6069 51.5145 65.9269C51.0345 66.0869 50.8345 66.1669 50.3445 66.1669C49.3545 66.1669 48.5745 65.8469 47.9845 65.2169C47.3745 64.5769 47.0845 63.6469 47.0845 62.4069Z" fill="white"/>
<path d="M42.2646 31.3071C45.8746 31.3071 48.7946 28.3771 48.7946 24.7771C48.7946 21.1671 45.8746 18.2471 42.2646 18.2471C38.6546 18.2471 35.7346 21.1771 35.7346 24.7771C35.7346 28.3771 38.6546 31.3071 42.2646 31.3071Z" fill="white"/>
</svg>
