<svg width="139" height="140" viewBox="0 0 139 140" fill="none" xmlns="http://www.w3.org/2000/svg">
<path d="M92.1226 92.7402C104.623 80.2397 104.623 59.9722 92.1226 47.4717C79.622 34.9711 59.3546 34.9711 46.854 47.4717C34.3534 59.9722 34.3534 80.2397 46.854 92.7402C59.3546 105.241 79.622 105.241 92.1226 92.7402Z" fill="white"/>
<path d="M70.5 0.649902H68.5V16.0199H70.5V0.649902Z" fill="white"/>
<path d="M117.89 20.3336L107.02 31.2002L108.434 32.6146L119.304 21.748L117.89 20.3336Z" fill="white"/>
<path d="M138.96 69.1099H123.59V71.1099H138.96V69.1099Z" fill="white"/>
<path d="M108.441 107.626L107.026 109.04L117.894 119.908L119.309 118.494L108.441 107.626Z" fill="white"/>
<path d="M70.5 124.19H68.5V139.56H70.5V124.19Z" fill="white"/>
<path d="M30.5408 107.642L19.6711 118.508L21.0851 119.923L31.9548 109.056L30.5408 107.642Z" fill="white"/>
<path d="M15.41 69.1099H0.0400391V71.1099H15.41V69.1099Z" fill="white"/>
<path d="M21.0665 20.3338L19.6523 21.748L30.5205 32.6162L31.9347 31.202L21.0665 20.3338Z" fill="white"/>
</svg>
