<svg width="139" height="140" viewBox="0 0 139 140" fill="none" xmlns="http://www.w3.org/2000/svg">
<path d="M92.1226 92.7407C104.623 80.2402 104.623 59.9727 92.1226 47.4722C79.622 34.9716 59.3546 34.9716 46.854 47.4722C34.3534 59.9727 34.3534 80.2402 46.854 92.7407C59.3546 105.241 79.622 105.241 92.1226 92.7407Z" fill="#777777"/>
<path d="M70.5 0.650391H68.5V16.0204H70.5V0.650391Z" fill="#777777"/>
<path d="M117.89 20.3346L107.02 31.2012L108.434 32.6156L119.304 21.749L117.89 20.3346Z" fill="#777777"/>
<path d="M138.96 69.1104H123.59V71.1104H138.96V69.1104Z" fill="#777777"/>
<path d="M108.441 107.627L107.026 109.041L117.894 119.909L119.309 118.495L108.441 107.627Z" fill="#777777"/>
<path d="M70.5 124.19H68.5V139.561H70.5V124.19Z" fill="#777777"/>
<path d="M30.5406 107.642L19.6709 118.509L21.0849 119.923L31.9546 109.057L30.5406 107.642Z" fill="#777777"/>
<path d="M15.41 69.1104H0.0400391V71.1104H15.41V69.1104Z" fill="#777777"/>
<path d="M21.0665 20.3338L19.6523 21.748L30.5205 32.6162L31.9347 31.202L21.0665 20.3338Z" fill="#777777"/>
</svg>
