<svg width="91" height="91" viewBox="0 0 91 91" fill="none" xmlns="http://www.w3.org/2000/svg">
<path d="M45.35 90.7C70.3961 90.7 90.7 70.3961 90.7 45.35C90.7 20.3039 70.3961 0 45.35 0C20.3039 0 0 20.3039 0 45.35C0 70.3961 20.3039 90.7 45.35 90.7Z" fill="white"/>
<path d="M34.28 38.47C34.28 36.58 34.28 34.69 34.28 32.79H34.29C34.67 27.54 39.05 23.4 44.39 23.4C44.39 23.4 44.39 23.4 44.39 23.39C46.49 23.39 48.19 21.69 48.19 19.59C48.19 17.49 46.49 15.79 44.39 15.79C34.87 15.79 27.11 23.29 26.67 32.7C26.67 32.7 26.67 32.7 26.66 32.7C26.66 34.62 26.66 36.54 26.66 38.46C25.34 38.46 24.02 38.46 22.7 38.46C22.7 50.38 22.7 62.31 22.7 74.23C37.16 74.23 51.61 74.23 66.07 74.23C66.07 62.31 66.07 50.38 66.07 38.46C55.49 38.47 44.89 38.47 34.28 38.47ZM48.55 65.16C45.82 65.16 43.09 65.16 40.36 65.16C40.92 63.07 41.49 60.98 42.05 58.89C40.36 58.02 39.2 56.26 39.2 54.22C39.2 51.32 41.55 48.97 44.45 48.97C47.35 48.97 49.7 51.32 49.7 54.22C49.7 56.32 48.46 58.13 46.67 58.97C47.3 61.03 47.93 63.1 48.55 65.16Z" fill="#8F9092"/>
</svg>
