<svg width="93" height="93" viewBox="0 0 93 93" fill="none" xmlns="http://www.w3.org/2000/svg">
<path d="M46.35 91.7C71.3961 91.7 91.7 71.3961 91.7 46.35C91.7 21.3039 71.3961 1 46.35 1C21.3039 1 1 21.3039 1 46.35C1 71.3961 21.3039 91.7 46.35 91.7Z" stroke="#777777" stroke-width="2" stroke-miterlimit="10"/>
<path d="M35.2802 39.47C35.2802 37.58 35.2802 35.69 35.2802 33.79H35.2902C35.6702 28.54 40.0502 24.4 45.3902 24.4C45.3902 24.4 45.3902 24.4 45.3902 24.39C47.4902 24.39 49.1902 22.69 49.1902 20.59C49.1902 18.49 47.4902 16.79 45.3902 16.79C35.8702 16.79 28.1102 24.29 27.6702 33.7C27.6702 33.7 27.6702 33.7 27.6602 33.7C27.6602 35.62 27.6602 37.54 27.6602 39.46C26.3402 39.46 25.0202 39.46 23.7002 39.46C23.7002 51.38 23.7002 63.31 23.7002 75.23C38.1602 75.23 52.6103 75.23 67.0703 75.23C67.0703 63.31 67.0703 51.38 67.0703 39.46C56.4903 39.47 45.8902 39.47 35.2802 39.47ZM49.5502 66.16C46.8202 66.16 44.0902 66.16 41.3602 66.16C41.9202 64.07 42.4902 61.98 43.0502 59.89C41.3602 59.02 40.2002 57.26 40.2002 55.22C40.2002 52.32 42.5502 49.97 45.4502 49.97C48.3502 49.97 50.7002 52.32 50.7002 55.22C50.7002 57.32 49.4602 59.13 47.6702 59.97C48.3002 62.03 48.9302 64.1 49.5502 66.16Z" fill="#8F9092"/>
</svg>
