<svg width="265" height="127" viewBox="0 0 265 127" fill="none" xmlns="http://www.w3.org/2000/svg">
<path d="M67.6898 35.8401C67.6898 17.3801 52.7298 2.41016 34.2598 2.41016C15.7998 2.41016 0.839844 17.3701 0.839844 35.8401C0.839844 54.3001 15.7998 69.2702 34.2598 69.2702C52.7298 69.2602 67.6898 54.2901 67.6898 35.8401ZM14.4599 35.8401C14.4599 24.9002 23.3298 16.0401 34.2598 16.0401C45.2098 16.0401 54.0699 24.9002 54.0699 35.8401C54.0699 46.7801 45.2098 55.6501 34.2598 55.6501C23.3298 55.6401 14.4599 46.7801 14.4599 35.8401Z" fill="#060001"/>
<path d="M161.43 6.33008H102.55V65.2201H161.43V6.33008ZM148.38 52.1701H115.59V19.3701H148.38V52.1701Z" fill="#060001"/>
<path d="M264.52 65.1699L245.82 32.7699L227.11 0.379883L208.41 32.7699L189.7 65.1699H227.11H264.52ZM227.07 26.7599L241.68 52.1999H212.55L227.07 26.7599Z" fill="#060001"/>
<path d="M52.4699 106.37C50.4999 106.46 48.8099 107.36 47.6699 108.61C46.3699 110.03 45.7799 111.85 45.8599 113.59C45.8799 115.12 46.3599 116.65 47.3999 117.94C48.3999 119.18 50.0099 120.29 51.8999 120.53C53.7499 120.76 55.7899 120.15 57.0399 119.04C57.1199 118.97 57.1999 118.9 57.2499 118.82C57.2999 118.74 57.3299 118.65 57.3299 118.55C57.3299 118.46 57.3099 118.36 57.2699 118.28C57.2299 118.19 57.1699 118.11 57.0899 118.05C57.0099 117.99 56.8999 117.95 56.7899 117.93C56.6799 117.92 56.5599 117.93 56.4599 117.97C56.3599 118.01 56.2899 118.08 56.2099 118.14C55.2199 118.97 53.6799 119.47 52.2399 119.34C50.7799 119.21 49.4799 118.43 48.6199 117.51C47.7299 116.56 47.2599 115.41 47.0899 114.24C47.0799 114.16 47.0899 114.08 47.1199 114C47.1499 113.92 47.1999 113.85 47.2699 113.79C47.3999 113.67 47.5999 113.6 47.7999 113.6C51.5199 113.6 55.2399 113.6 58.9599 113.59C59.1599 113.59 59.3399 113.53 59.4799 113.41C59.5499 113.35 59.5999 113.29 59.6299 113.21C59.6599 113.14 59.6799 113.06 59.6699 112.98C59.5999 111.25 58.8699 109.49 57.4399 108.18C56.1899 107.03 54.4299 106.28 52.4699 106.37ZM58.2399 111.9C58.2199 111.99 58.1699 112.07 58.1099 112.14C57.9799 112.28 57.7699 112.36 57.5499 112.36C54.3799 112.36 51.1999 112.36 48.0299 112.36C47.8099 112.36 47.5999 112.28 47.4699 112.14C47.3999 112.07 47.3599 111.99 47.3399 111.91C47.3199 111.82 47.3199 111.74 47.3499 111.65C47.7699 110.31 48.6999 109.03 50.1399 108.24C51.4199 107.53 52.9799 107.36 54.4299 107.84C56.4199 108.5 57.7099 110.03 58.2399 111.64C58.2499 111.73 58.2599 111.82 58.2399 111.9Z" fill="#060001"/>
<path d="M170.66 107.93C170.32 107.5 169.9 107.12 169.4 106.79C168.91 106.47 168.35 106.22 167.75 106.05C167.15 105.88 166.51 105.82 165.88 105.86C165.25 105.9 164.63 106.03 164.06 106.26C163.49 106.48 162.98 106.79 162.54 107.16C162.44 107.24 162.29 107.27 162.16 107.23C162.1 107.21 162.04 107.18 162 107.13C161.96 107.09 161.94 107.03 161.93 106.98C161.92 106.9 161.9 106.81 161.86 106.74C161.82 106.66 161.76 106.59 161.69 106.53C161.62 106.47 161.52 106.43 161.42 106.41C161.32 106.39 161.21 106.4 161.11 106.43C161.01 106.46 160.93 106.51 160.86 106.57C160.79 106.63 160.74 106.71 160.7 106.79C160.67 106.87 160.65 106.95 160.65 107.04C160.65 111.4 160.65 115.77 160.65 120.13C160.65 120.22 160.67 120.3 160.7 120.39C160.74 120.47 160.79 120.55 160.86 120.61C160.93 120.67 161.02 120.72 161.13 120.75C161.23 120.78 161.34 120.78 161.45 120.75C161.55 120.72 161.64 120.67 161.72 120.61C161.79 120.55 161.85 120.47 161.88 120.39C161.91 120.31 161.93 120.22 161.93 120.13C161.93 117.09 161.93 114.04 161.93 111C161.93 110.46 162.07 109.92 162.33 109.42C162.59 108.92 162.98 108.47 163.47 108.1C163.96 107.73 164.55 107.45 165.2 107.3C165.85 107.16 166.54 107.16 167.19 107.3C167.84 107.44 168.43 107.73 168.92 108.1C169.41 108.47 169.8 108.93 170.06 109.42C170.32 109.92 170.46 110.46 170.46 111C170.46 114.04 170.46 117.09 170.46 120.13C170.46 120.22 170.48 120.3 170.51 120.38C170.55 120.46 170.6 120.54 170.67 120.6C170.74 120.66 170.83 120.72 170.94 120.74C171.04 120.77 171.15 120.77 171.26 120.74C171.36 120.71 171.45 120.66 171.53 120.6C171.6 120.54 171.66 120.46 171.69 120.38C171.72 120.3 171.74 120.21 171.74 120.12C171.74 117.02 171.74 113.92 171.74 110.82C171.74 110.31 171.63 109.8 171.44 109.32C171.27 108.82 171 108.36 170.66 107.93Z" fill="#060001"/>
<path d="M192.65 111.89C192.58 111.83 192.48 111.78 192.38 111.75C192.28 111.73 192.16 111.72 192.06 111.75C191.96 111.77 191.86 111.83 191.79 111.89C191.72 111.95 191.66 112.03 191.62 112.11C191.58 112.19 191.57 112.28 191.57 112.37C191.57 113.78 191.57 115.19 191.57 116.6C191.57 116.77 191.53 116.94 191.46 117.09C191.39 117.25 191.28 117.4 191.14 117.52C190.26 118.35 188.93 119 187.55 119.08C186.16 119.16 184.76 118.68 183.74 117.94C182.69 117.18 182.02 116.14 181.66 115.06C181.29 113.97 181.24 112.82 181.49 111.71C181.74 110.6 182.29 109.53 183.21 108.67C184.1 107.84 185.38 107.18 186.78 107.08C188.16 106.98 189.61 107.43 190.6 108.2C190.68 108.26 190.77 108.31 190.87 108.34C190.97 108.37 191.08 108.37 191.18 108.34C191.28 108.31 191.37 108.26 191.44 108.2C191.51 108.14 191.56 108.06 191.6 107.98C191.64 107.9 191.65 107.81 191.64 107.73C191.64 107.64 191.62 107.56 191.58 107.48C191.54 107.4 191.48 107.33 191.41 107.27C190.27 106.36 188.61 105.8 187 105.86C185.37 105.91 183.83 106.59 182.71 107.51C181.57 108.45 180.84 109.68 180.46 110.95C180.08 112.23 180.05 113.57 180.36 114.86C180.67 116.15 181.32 117.39 182.39 118.39C183.43 119.37 184.89 120.14 186.51 120.3C188.11 120.46 189.81 120 191.04 119.18C191.15 119.11 191.31 119.09 191.43 119.15C191.49 119.18 191.54 119.22 191.58 119.27C191.6 119.29 191.61 119.32 191.61 119.35C191.62 119.38 191.62 119.41 191.61 119.43C191.54 119.94 191.41 120.45 191.21 120.94C191.01 121.43 190.74 121.9 190.41 122.34C190.07 122.78 189.67 123.18 189.19 123.53C188.72 123.87 188.17 124.16 187.58 124.35C186.99 124.54 186.35 124.64 185.71 124.63C185.07 124.62 184.44 124.49 183.86 124.27C183.28 124.05 182.76 123.74 182.3 123.39C182.22 123.33 182.12 123.25 182.02 123.2C181.93 123.16 181.82 123.14 181.71 123.16C181.6 123.18 181.5 123.23 181.42 123.29C181.34 123.35 181.27 123.43 181.23 123.51C181.19 123.6 181.17 123.69 181.17 123.78C181.17 123.87 181.2 123.97 181.25 124.05C181.3 124.13 181.38 124.21 181.46 124.27C182.05 124.74 182.73 125.15 183.49 125.43C184.25 125.71 185.09 125.86 185.92 125.84C186.75 125.83 187.58 125.65 188.33 125.36C189.08 125.06 189.75 124.64 190.32 124.15C190.89 123.66 191.37 123.09 191.74 122.49C192.12 121.89 192.39 121.25 192.58 120.59C192.76 119.93 192.85 119.26 192.85 118.58C192.85 116.5 192.85 114.41 192.85 112.33C192.85 112.24 192.83 112.16 192.8 112.07C192.77 111.98 192.73 111.95 192.65 111.89Z" fill="#060001"/>
<path d="M149.69 106.01C149.62 105.95 149.53 105.9 149.42 105.87C149.31 105.84 149.21 105.85 149.11 105.87C149.01 105.89 148.92 105.94 148.84 106.01C148.77 106.07 148.71 106.15 148.68 106.23C148.64 106.31 148.63 106.4 148.63 106.48C148.63 109.52 148.63 112.56 148.63 115.61C148.63 116.15 148.49 116.69 148.23 117.19C147.97 117.69 147.58 118.14 147.09 118.51C146.6 118.88 146 119.16 145.36 119.31C144.71 119.45 144.02 119.45 143.37 119.31C142.72 119.17 142.13 118.88 141.64 118.51C141.15 118.14 140.76 117.68 140.5 117.19C140.24 116.69 140.1 116.15 140.1 115.61C140.1 112.57 140.1 109.53 140.1 106.48C140.1 106.4 140.08 106.31 140.05 106.23C140.02 106.15 139.96 106.07 139.89 106.01C139.82 105.95 139.73 105.9 139.63 105.87C139.53 105.85 139.42 105.85 139.32 105.87C139.22 105.9 139.13 105.94 139.06 106.01C138.99 106.07 138.93 106.15 138.9 106.23C138.86 106.31 138.85 106.4 138.85 106.48C138.85 109.58 138.85 112.68 138.85 115.78C138.85 116.29 138.96 116.8 139.15 117.28C139.34 117.77 139.6 118.24 139.94 118.66C140.28 119.09 140.7 119.48 141.19 119.8C141.68 120.12 142.24 120.38 142.84 120.54C143.44 120.7 144.08 120.77 144.71 120.73C145.34 120.69 145.96 120.55 146.53 120.33C147.1 120.11 147.61 119.79 148.05 119.43C148.15 119.35 148.3 119.32 148.44 119.37C148.51 119.39 148.56 119.43 148.6 119.48C148.64 119.53 148.66 119.58 148.66 119.64C148.66 119.81 148.66 119.97 148.66 120.14C148.66 120.23 148.68 120.31 148.71 120.4C148.74 120.48 148.8 120.56 148.87 120.62C148.94 120.68 149.03 120.74 149.14 120.76C149.24 120.79 149.36 120.79 149.46 120.76C149.56 120.73 149.65 120.68 149.73 120.62C149.8 120.56 149.86 120.48 149.89 120.4C149.92 120.32 149.94 120.23 149.94 120.14C149.94 115.59 149.94 111.04 149.94 106.48C149.94 106.39 149.92 106.31 149.89 106.23C149.81 106.15 149.76 106.07 149.69 106.01Z" fill="#060001"/>
<path d="M128.02 106.01C127.95 105.95 127.86 105.9 127.75 105.87C127.65 105.85 127.54 105.84 127.44 105.87C127.34 105.89 127.25 105.95 127.18 106.01C127.11 106.07 127.05 106.15 127.02 106.23C126.98 106.31 126.96 106.4 126.96 106.48C126.96 109.52 126.96 112.56 126.96 115.61C126.96 116.15 126.82 116.69 126.56 117.19C126.3 117.69 125.91 118.15 125.42 118.52C124.93 118.89 124.34 119.17 123.69 119.32C123.04 119.46 122.35 119.46 121.7 119.32C121.05 119.18 120.46 118.89 119.97 118.52C119.48 118.15 119.09 117.7 118.83 117.2C118.57 116.7 118.43 116.16 118.43 115.62C118.43 112.58 118.43 109.54 118.43 106.49C118.43 106.41 118.41 106.32 118.38 106.24C118.34 106.16 118.29 106.08 118.22 106.02C118.15 105.96 118.06 105.91 117.96 105.88C117.86 105.86 117.75 105.86 117.65 105.88C117.55 105.91 117.46 105.95 117.38 106.02C117.31 106.08 117.25 106.16 117.22 106.24C117.19 106.32 117.17 106.41 117.17 106.49C117.17 109.59 117.17 112.69 117.17 115.79C117.19 116.31 117.3 116.82 117.48 117.31C117.67 117.8 117.94 118.28 118.29 118.71C118.64 119.14 119.07 119.53 119.57 119.85C120.07 120.17 120.64 120.42 121.25 120.58C121.86 120.73 122.51 120.79 123.14 120.74C123.77 120.69 124.4 120.54 124.96 120.3C125.53 120.06 126.03 119.73 126.47 119.35C126.55 119.28 126.67 119.26 126.78 119.29C126.83 119.31 126.88 119.34 126.91 119.37C126.94 119.41 126.96 119.45 126.96 119.5C126.96 121.56 126.96 123.61 126.96 125.67C126.96 125.76 126.98 125.84 127.02 125.93C127.06 126.01 127.11 126.09 127.18 126.15C127.25 126.21 127.34 126.27 127.45 126.29C127.55 126.32 127.67 126.31 127.77 126.29C127.87 126.26 127.96 126.21 128.04 126.15C128.11 126.09 128.17 126.01 128.2 125.93C128.23 125.85 128.25 125.76 128.25 125.67C128.25 119.28 128.25 112.88 128.25 106.49C128.25 106.4 128.23 106.32 128.2 106.24C128.14 106.15 128.09 106.07 128.02 106.01Z" fill="#060001"/>
<path d="M105.91 107.82C105.56 107.37 105.13 106.96 104.61 106.64C104.09 106.31 103.49 106.07 102.85 105.96C102.21 105.85 101.53 105.87 100.9 106.01C100.27 106.16 99.6899 106.43 99.1999 106.78C98.7099 107.13 98.2998 107.56 97.9698 108.02C97.9098 108.11 97.7899 108.17 97.6599 108.17C97.5299 108.17 97.4099 108.11 97.3499 108.02C97.1499 107.73 96.9098 107.46 96.6498 107.21C96.3798 106.96 96.0798 106.73 95.7498 106.54C95.4198 106.35 95.0499 106.19 94.6699 106.08C94.2799 105.97 93.8798 105.91 93.4698 105.89C93.0598 105.87 92.6498 105.92 92.2498 106.01C91.8598 106.1 91.4799 106.24 91.1299 106.42C90.7799 106.6 90.4698 106.81 90.1798 107.05C90.0898 107.13 89.9498 107.16 89.8298 107.13C89.6998 107.1 89.6098 107.02 89.5798 106.91C89.5598 106.83 89.5198 106.76 89.4698 106.69C89.4198 106.62 89.3598 106.56 89.2798 106.52C89.1998 106.48 89.1099 106.44 89.0099 106.44C88.9099 106.43 88.8099 106.45 88.7299 106.48C88.6399 106.52 88.5699 106.57 88.5099 106.63C88.4499 106.69 88.4099 106.76 88.3799 106.84C88.3499 106.92 88.3398 106.99 88.3398 107.07C88.3398 111.42 88.3398 115.77 88.3398 120.12C88.3398 120.21 88.3599 120.29 88.3899 120.37C88.4199 120.45 88.4798 120.53 88.5498 120.59C88.6198 120.65 88.7098 120.71 88.8098 120.73C88.9098 120.76 89.0199 120.76 89.1299 120.73C89.2299 120.7 89.3199 120.65 89.3899 120.59C89.4599 120.53 89.5198 120.45 89.5498 120.37C89.5798 120.29 89.5999 120.2 89.5999 120.12C89.5999 117.09 89.5999 114.05 89.5999 111.02C89.5999 110.14 89.8998 109.25 90.5198 108.52C91.1598 107.77 92.1399 107.22 93.3199 107.22C94.4499 107.22 95.4098 107.74 96.0498 108.45C96.6698 109.14 97.0198 110 97.0198 110.85C97.0198 113.94 97.0198 117.04 97.0198 120.13C97.0198 120.22 97.0399 120.3 97.0699 120.38C97.0999 120.46 97.1599 120.54 97.2299 120.6C97.2999 120.66 97.3898 120.72 97.4898 120.74C97.5898 120.77 97.6998 120.76 97.8098 120.74C97.9098 120.71 97.9998 120.66 98.0798 120.6C98.1498 120.54 98.2098 120.46 98.2398 120.38C98.2798 120.3 98.2899 120.21 98.2899 120.13C98.2899 117.1 98.2899 114.06 98.2899 111.03C98.2899 110.08 98.6099 109.1 99.3499 108.34C99.9999 107.68 100.94 107.22 102.01 107.22C103.08 107.22 104.02 107.68 104.67 108.34C105.41 109.1 105.73 110.08 105.73 111.03C105.73 114.06 105.73 117.1 105.73 120.13C105.73 120.22 105.75 120.3 105.78 120.38C105.81 120.46 105.87 120.54 105.94 120.6C106.01 120.66 106.1 120.72 106.2 120.74C106.3 120.76 106.41 120.77 106.52 120.74C106.62 120.71 106.71 120.66 106.78 120.6C106.85 120.54 106.9 120.46 106.94 120.38C106.98 120.3 106.99 120.21 106.99 120.13C106.99 117.04 106.99 113.94 106.99 110.85C106.99 110.32 106.89 109.79 106.71 109.28C106.53 108.75 106.26 108.27 105.91 107.82Z" fill="#060001"/>
<path d="M35.3098 95.8301C34.7098 95.4901 33.8098 95.4801 33.2198 95.8301C32.6098 96.1801 32.3298 96.88 32.3298 97.45C32.3298 104.67 32.3298 111.9 32.3298 119.12C32.3298 119.69 32.6198 120.39 33.2198 120.74C33.8198 121.09 34.7198 121.08 35.3098 120.74C35.9198 120.39 36.1998 119.69 36.1998 119.12C36.1998 111.9 36.1998 104.67 36.1998 97.45C36.1998 96.88 35.9198 96.1801 35.3098 95.8301Z" fill="#060001"/>
<path d="M232.11 106.01C232.04 105.95 231.95 105.899 231.84 105.869C231.74 105.849 231.63 105.849 231.53 105.869C231.43 105.889 231.34 105.94 231.26 106.01C231.19 106.07 231.13 106.15 231.1 106.23C231.06 106.31 231.05 106.4 231.05 106.48C231.05 109.52 231.05 112.559 231.05 115.609C231.05 116.149 230.91 116.689 230.65 117.189C230.39 117.689 230 118.14 229.51 118.51C229.02 118.88 228.42 119.159 227.78 119.309C227.13 119.449 226.44 119.449 225.79 119.309C225.14 119.169 224.55 118.88 224.06 118.51C223.57 118.14 223.18 117.679 222.92 117.189C222.66 116.689 222.52 116.149 222.52 115.609C222.52 112.569 222.52 109.53 222.52 106.48C222.52 106.4 222.5 106.31 222.47 106.23C222.44 106.15 222.38 106.07 222.31 106.01C222.24 105.95 222.15 105.899 222.05 105.869C221.95 105.849 221.84 105.849 221.74 105.869C221.64 105.899 221.55 105.94 221.48 106.01C221.41 106.07 221.35 106.15 221.32 106.23C221.28 106.31 221.27 106.4 221.27 106.48C221.27 109.58 221.27 112.679 221.27 115.779C221.27 116.289 221.38 116.799 221.57 117.279C221.76 117.769 222.02 118.24 222.36 118.66C222.7 119.09 223.12 119.479 223.61 119.799C224.1 120.119 224.66 120.38 225.26 120.54C225.86 120.7 226.5 120.77 227.13 120.73C227.76 120.69 228.38 120.549 228.95 120.329C229.52 120.099 230.03 119.789 230.47 119.429C230.57 119.349 230.72 119.319 230.86 119.369C230.92 119.389 230.98 119.43 231.02 119.48C231.06 119.53 231.08 119.58 231.08 119.64C231.08 119.81 231.08 119.97 231.08 120.14C231.08 120.23 231.1 120.309 231.13 120.399C231.16 120.489 231.22 120.559 231.29 120.619C231.36 120.679 231.45 120.74 231.56 120.76C231.66 120.79 231.77 120.79 231.88 120.76C231.99 120.73 232.07 120.679 232.15 120.619C232.22 120.559 232.28 120.479 232.31 120.399C232.34 120.319 232.36 120.23 232.36 120.14C232.36 115.59 232.36 111.04 232.36 106.48C232.36 106.39 232.34 106.31 232.31 106.23C232.24 106.15 232.18 106.07 232.11 106.01Z" fill="#060001"/>
<path d="M72.9599 106.37C70.9899 106.46 69.2999 107.36 68.1599 108.61C66.8599 110.03 66.2699 111.85 66.3499 113.59C66.3699 115.12 66.8499 116.65 67.8899 117.94C68.8899 119.18 70.4999 120.29 72.3899 120.53C74.2399 120.76 76.2799 120.15 77.5299 119.04C77.6099 118.97 77.6899 118.9 77.7399 118.82C77.7899 118.74 77.8199 118.65 77.8199 118.55C77.8199 118.46 77.7999 118.36 77.7599 118.28C77.7199 118.19 77.6599 118.11 77.5799 118.05C77.4999 117.99 77.3899 117.95 77.2799 117.93C77.1699 117.92 77.0499 117.93 76.9499 117.97C76.8499 118.01 76.7799 118.08 76.6999 118.14C75.6999 118.97 74.1699 119.47 72.7299 119.34C71.2699 119.21 69.9699 118.43 69.1099 117.51C68.2199 116.56 67.7499 115.41 67.5799 114.24C67.5699 114.16 67.5799 114.08 67.6099 114C67.6399 113.92 67.6899 113.85 67.7599 113.79C67.8899 113.67 68.0899 113.6 68.2899 113.6C72.0099 113.6 75.7299 113.6 79.4499 113.59C79.6499 113.59 79.8299 113.53 79.9699 113.41C80.0399 113.35 80.0899 113.29 80.1199 113.21C80.1499 113.14 80.1699 113.06 80.1599 112.98C80.0899 111.25 79.3599 109.49 77.9299 108.18C76.6799 107.03 74.9199 106.28 72.9599 106.37ZM78.7299 111.9C78.7099 111.99 78.6599 112.07 78.5999 112.14C78.4699 112.28 78.2599 112.36 78.0399 112.36C74.8699 112.36 71.6899 112.36 68.5199 112.36C68.2999 112.36 68.0899 112.28 67.9599 112.14C67.8899 112.07 67.8499 111.99 67.8299 111.91C67.8099 111.82 67.8099 111.74 67.8399 111.65C68.2599 110.31 69.1899 109.03 70.6299 108.24C71.9099 107.53 73.4699 107.36 74.9199 107.84C76.9099 108.5 78.1999 110.03 78.7299 111.64C78.7399 111.73 78.7499 111.82 78.7299 111.9Z" fill="#060001"/>
<path d="M210.95 113.59C210.5 113.38 210.05 113.18 209.59 113C209.12 112.81 208.65 112.63 208.19 112.44C207.74 112.25 207.28 112.05 206.86 111.83C206.45 111.62 206.06 111.39 205.79 111.06C205.52 110.72 205.36 110.28 205.33 109.88C205.29 109.32 205.51 108.74 205.88 108.27C206.25 107.8 206.8 107.38 207.47 107.21C208.79 106.87 210.41 107.49 211.3 108.22C211.47 108.36 211.76 108.56 212.03 108.55C212.31 108.54 212.54 108.3 212.59 108.1C212.62 107.98 212.6 107.86 212.55 107.75C212.5 107.64 212.42 107.54 212.33 107.45C211.01 106.17 208.68 105.52 206.67 105.94C204.65 106.36 203.03 107.84 202.19 109.28C201.64 110.22 201.31 111.23 201.17 112.26C201.03 113.29 201.09 114.33 201.35 115.35C201.68 116.63 202.33 117.89 203.37 118.91C204.4 119.92 205.83 120.71 207.49 120.85C208.59 120.97 209.71 120.76 210.66 120.31C211.61 119.86 212.39 119.17 212.8 118.34C213.2 117.51 213.22 116.56 212.92 115.72C212.59 114.83 211.93 114.05 210.95 113.59ZM211.35 117.91C211.06 118.48 210.5 118.95 209.84 119.25C209.17 119.55 208.4 119.69 207.63 119.61C206.28 119.46 205.12 118.81 204.27 117.98C203.41 117.15 202.86 116.13 202.59 115.07C202.36 114.18 202.31 113.26 202.43 112.36C202.54 111.55 202.8 110.75 203.21 110.01C203.5 109.49 204.09 109.53 204.16 110.14C204.19 110.39 204.24 110.65 204.32 110.89C204.43 111.22 204.6 111.55 204.83 111.84C205.06 112.13 205.34 112.4 205.67 112.62C206 112.84 206.36 113.02 206.73 113.19C207.1 113.36 207.49 113.51 207.87 113.66C208.25 113.81 208.64 113.97 209.02 114.12C209.4 114.28 209.78 114.43 210.15 114.61C210.83 114.93 211.28 115.48 211.48 116.09C211.67 116.69 211.64 117.34 211.35 117.91Z" fill="#060001"/>
</svg>
