<svg width="101" height="120" viewBox="0 0 101 120" fill="none" xmlns="http://www.w3.org/2000/svg">
<path d="M67.7999 21.4102C67.7999 27.1202 67.7999 32.8302 67.7999 38.5302C78.2798 44.5602 85.4099 55.7302 85.4099 68.6802C85.4099 87.9602 69.7799 103.59 50.4999 103.59C31.2199 103.59 15.5899 87.9602 15.5899 68.6802C15.5899 55.7302 22.7199 44.5602 33.1999 38.5302C33.1999 32.8202 33.1999 27.1102 33.1999 21.4102C13.9099 28.4802 0.109863 46.9402 0.109863 68.6902C0.109863 96.5202 22.6699 119.08 50.4999 119.08C78.3299 119.08 100.89 96.5202 100.89 68.6902C100.89 46.9502 87.0899 28.4802 67.7999 21.4102Z" fill="white"/>
<path d="M54.7197 54.86C51.9097 54.86 49.0997 54.86 46.2897 54.86C44.2997 54.86 42.6797 53.23 42.6797 51.25C42.6797 35.45 42.6797 19.66 42.6797 3.85999C42.6797 1.86999 44.3097 0.25 46.2897 0.25C49.0997 0.25 51.9097 0.25 54.7197 0.25C56.7097 0.25 58.3297 1.87999 58.3297 3.85999C58.3297 19.66 58.3297 35.45 58.3297 51.25C58.3297 53.23 56.6997 54.86 54.7197 54.86Z" fill="white"/>
</svg>
