<svg width="101" height="119" viewBox="0 0 101 119" fill="none" xmlns="http://www.w3.org/2000/svg">
<path d="M67.69 21.1602C67.69 26.8702 67.69 32.5802 67.69 38.2802C78.17 44.3102 85.3 55.4802 85.3 68.4302C85.3 87.7102 69.67 103.34 50.39 103.34C31.11 103.34 15.48 87.7102 15.48 68.4302C15.48 55.4802 22.61 44.3102 33.09 38.2802C33.09 32.5702 33.09 26.8602 33.09 21.1602C13.8 28.2302 0 46.6902 0 68.4402C0 96.2702 22.56 118.83 50.39 118.83C78.22 118.83 100.78 96.2702 100.78 68.4402C100.78 46.7002 86.98 28.2302 67.69 21.1602Z" fill="#777777"/>
<path d="M54.6103 54.61C51.8003 54.61 48.9903 54.61 46.1803 54.61C44.1903 54.61 42.5703 52.98 42.5703 51C42.5703 35.2 42.5703 19.41 42.5703 3.60999C42.5703 1.61999 44.2003 0 46.1803 0C48.9903 0 51.8003 0 54.6103 0C56.6003 0 58.2203 1.62999 58.2203 3.60999C58.2203 19.41 58.2203 35.2 58.2203 51C58.2203 52.98 56.5903 54.61 54.6103 54.61Z" fill="#777777"/>
</svg>
