<svg width="124" height="84" viewBox="0 0 124 84" fill="none" xmlns="http://www.w3.org/2000/svg">
<path d="M123.66 35.7499C88.5402 35.7499 53.4201 35.7499 18.2901 35.7499C14.9101 35.7499 12.1602 33.0099 12.1602 29.6199C12.1602 26.2399 14.9001 23.4899 18.2901 23.4899C41.2801 23.4899 64.2702 23.4899 87.2602 23.4899C81.8102 19.3499 76.3501 15.2099 70.9001 11.0699C68.2101 9.01992 67.6802 5.17991 69.7302 2.48991C71.7802 -0.200094 75.6202 -0.730076 78.3102 1.31992C93.4302 12.7999 108.54 24.2699 123.66 35.7499Z" fill="#676868"/>
<path d="M49.1401 83.37C47.8501 83.37 46.5501 82.96 45.4401 82.12C30.3201 70.64 15.2101 59.1699 0.0900879 47.6899C35.2101 47.6899 70.3301 47.6899 105.46 47.6899C108.84 47.6899 111.59 50.4299 111.59 53.8199C111.59 57.2099 108.85 59.95 105.46 59.95C82.4701 59.95 59.4801 59.95 36.4901 59.95C41.9401 64.09 47.4001 68.23 52.8501 72.37C55.5401 74.42 56.0701 78.26 54.0201 80.95C52.8201 82.53 50.9901 83.37 49.1401 83.37Z" fill="#676868"/>
</svg>
