<svg width="123" height="88" viewBox="0 0 123 88" fill="none" xmlns="http://www.w3.org/2000/svg">
<path d="M89.4099 10.6899C77.2299 10.6899 65.0499 10.6899 52.8699 10.6899C55.1299 9.06994 57.3999 7.43995 59.6599 5.81995C58.2699 3.88995 56.8799 1.95002 55.4899 0.0200195C48.5499 5.00002 41.6099 9.97996 34.6699 14.96C41.6099 19.94 48.5499 24.92 55.4899 29.9C56.8799 27.96 58.2699 26.03 59.6599 24.09C57.2699 22.37 54.8699 20.6501 52.4799 18.9301C64.8099 18.9301 77.1299 18.9301 89.4599 18.9301C103.07 18.9301 114.46 29.77 114.57 43.39C114.66 54.63 107.19 64.18 96.9399 67.23C95.1999 67.75 94.0199 69.36 94.0199 71.17C94.0199 73.9 96.6399 75.92 99.2599 75.14C112.83 71.11 122.76 58.5399 122.81 43.6899C122.86 25.5399 107.56 10.6899 89.4099 10.6899Z" fill="#676868"/>
<path d="M65.9399 63.36C68.2199 65 70.4999 66.63 72.7799 68.27C59.9499 68.27 47.1299 68.27 34.2999 68.27C20.6299 68.27 9.22993 57.3501 9.18993 43.6801C9.15993 32.3901 16.7499 22.83 27.1099 19.88C28.8699 19.38 30.0799 17.7601 30.0799 15.9301C30.0799 13.2101 27.4899 11.2099 24.8799 11.9499C11.1599 15.8499 1.05993 28.44 0.95993 43.38C0.83993 61.6 16.1399 76.52 34.3599 76.52C47.2699 76.52 60.1799 76.52 73.0899 76.52C70.7099 78.23 68.3299 79.93 65.9499 81.64C67.3399 83.57 68.7299 85.5099 70.1199 87.4399C77.0599 82.4599 83.9999 77.48 90.9399 72.5C83.9999 67.52 77.0599 62.5401 70.1199 57.5601C68.7199 59.4901 67.3299 61.42 65.9399 63.36Z" fill="#676868"/>
<path d="M33.79 53.3199C38.9097 53.3199 43.06 49.1697 43.06 44.05C43.06 38.9304 38.9097 34.78 33.79 34.78C28.6703 34.78 24.52 38.9304 24.52 44.05C24.52 49.1697 28.6703 53.3199 33.79 53.3199Z" fill="#E61F19"/>
<path d="M62.3598 53.3199C67.4795 53.3199 71.6299 49.1697 71.6299 44.05C71.6299 38.9304 67.4795 34.78 62.3598 34.78C57.2402 34.78 53.0898 38.9304 53.0898 44.05C53.0898 49.1697 57.2402 53.3199 62.3598 53.3199Z" fill="#9CFF00"/>
<path d="M90.9199 53.3199C96.0396 53.3199 100.19 49.1697 100.19 44.05C100.19 38.9304 96.0396 34.78 90.9199 34.78C85.8002 34.78 81.6499 38.9304 81.6499 44.05C81.6499 49.1697 85.8002 53.3199 90.9199 53.3199Z" fill="#2963AE"/>
</svg>
