<svg width="391" height="55" viewBox="0 0 391 55" fill="none" xmlns="http://www.w3.org/2000/svg">
<path d="M363.63 0.810059C251.59 0.810059 139.55 0.810059 27.52 0.810059C12.77 0.810059 0.76001 12.8099 0.76001 27.5699C0.76001 42.3299 12.76 54.33 27.52 54.33C139.56 54.33 251.6 54.33 363.63 54.33C378.38 54.33 390.39 42.3299 390.39 27.5699C390.39 12.8099 378.38 0.810059 363.63 0.810059ZM363.63 40.45C251.59 40.45 139.55 40.45 27.52 40.45C20.41 40.45 14.63 34.6701 14.63 27.5601C14.63 20.4501 20.41 14.67 27.52 14.67C139.56 14.67 251.6 14.67 363.63 14.67C370.74 14.67 376.52 20.4501 376.52 27.5601C376.52 34.6701 370.73 40.45 363.63 40.45Z" fill="#676868"/>
</svg>
