<svg width="52" height="52" viewBox="0 0 52 52" fill="none" xmlns="http://www.w3.org/2000/svg">
<path d="M24.58 2.29004C24.58 4.98004 24.58 7.66999 24.58 10.36C21.2 10.66 18.12 11.99 15.66 14.05C13.76 12.15 11.86 10.25 9.96002 8.34998C9.41002 7.79998 8.51001 7.79998 7.95001 8.34998C7.40001 8.89998 7.40001 9.79998 7.95001 10.35C9.85001 12.25 11.75 14.15 13.65 16.05C11.59 18.51 10.25 21.59 9.96002 24.97C7.27002 24.97 4.58001 24.97 1.89001 24.97C1.11001 24.97 0.469971 25.6 0.469971 26.39C0.469971 27.18 1.11001 27.8101 1.89001 27.8101C4.58001 27.8101 7.27002 27.8101 9.96002 27.8101C10.25 31.1901 11.59 34.27 13.65 36.73C11.75 38.63 9.85001 40.5301 7.95001 42.4301C7.40001 42.9801 7.40001 43.8801 7.95001 44.4301C8.50001 44.9801 9.40002 44.9801 9.96002 44.4301C11.86 42.5301 13.76 40.63 15.66 38.73C18.12 40.79 21.2 42.13 24.58 42.42C24.58 45.11 24.58 47.8 24.58 50.49C24.58 51.27 25.21 51.91 26 51.91C26.78 51.91 27.42 51.28 27.42 50.49C27.42 47.8 27.42 45.11 27.42 42.42C30.8 42.13 33.88 40.79 36.34 38.73C38.24 40.63 40.14 42.5301 42.04 44.4301C42.59 44.9801 43.49 44.9801 44.04 44.4301C44.32 44.1501 44.46 43.7901 44.46 43.4301C44.46 43.0701 44.32 42.7001 44.04 42.4301C42.14 40.5301 40.24 38.63 38.34 36.73C40.4 34.27 41.74 31.1901 42.03 27.8101C44.72 27.8101 47.41 27.8101 50.1 27.8101C50.88 27.8101 51.52 27.18 51.52 26.39C51.52 25.6 50.89 24.97 50.1 24.97C47.41 24.97 44.72 24.97 42.03 24.97C41.74 21.59 40.4 18.51 38.34 16.05C40.24 14.15 42.14 12.25 44.04 10.35C44.32 10.07 44.46 9.70998 44.46 9.34998C44.46 8.98998 44.32 8.61998 44.04 8.34998C43.49 7.79998 42.59 7.79998 42.04 8.34998C40.14 10.25 38.24 12.15 36.34 14.05C33.88 11.99 30.8 10.65 27.42 10.36C27.42 7.66999 27.42 4.98004 27.42 2.29004C27.42 1.51004 26.79 0.869995 26 0.869995C25.22 0.879995 24.58 1.51004 24.58 2.29004Z" fill="#BBBBBB"/>
</svg>
