<svg width="237" height="94" viewBox="0 0 237 94" fill="none" xmlns="http://www.w3.org/2000/svg">
<path d="M171.31 0.75H118.5H65.6899L92.0899 47.21L118.49 93.67L144.89 47.21L171.31 0.75ZM118.34 66.28L88.6999 14.23H118.5H148.3L118.34 66.28Z" fill="#808182"/>
<path d="M210.12 47.21L183.72 0.75L157.32 47.21L130.92 93.67H183.73H236.54L210.12 47.21ZM153.92 80.2L183.88 28.15L213.52 80.2H183.72H153.92Z" fill="white"/>
<path d="M53.28 0.75L26.88 47.21L0.47998 93.67H53.29H106.1L79.7 47.21L53.28 0.75ZM53.28 80.2H23.48L53.44 28.15L83.08 80.2H53.28Z" fill="#424142"/>
</svg>
