<svg width="64" height="67" viewBox="0 0 64 67" fill="none" xmlns="http://www.w3.org/2000/svg">
<path d="M31.9401 3.10991C25.7601 3.10991 19.9901 4.88991 15.1101 7.96991C13.1101 5.61991 11.1201 3.25991 9.12009 0.909912C6.11009 9.51991 3.10009 18.1199 0.0900879 26.7299C4.54009 25.8899 8.98009 25.0599 13.4301 24.2199C17.8801 23.3799 22.3201 22.5499 26.7701 21.7099C24.8901 19.4899 23.0101 17.2699 21.1201 15.0499C24.3301 13.2799 28.0201 12.2599 31.9501 12.2599C44.3901 12.2599 54.5101 22.3799 54.5101 34.8199C54.5101 47.2599 44.3901 57.3799 31.9501 57.3799C24.1901 57.3799 17.3401 53.4399 13.2801 47.4499C9.81009 47.4499 6.35009 47.4499 2.88009 47.4499C7.77009 58.6699 18.9601 66.5299 31.9601 66.5299C49.4401 66.5299 63.6701 52.3099 63.6701 34.8199C63.6701 17.3299 49.4201 3.10991 31.9401 3.10991Z" fill="#E3E4E1"/>
</svg>
